<mxfile host="app.diagrams.net" modified="2022-09-25T14:59:24.998Z" agent="5.0 (Windows NT 10.0; Win64; x64) AppleWebKit/537.36 (KHTML, like Gecko) Chrome/104.0.5112.84 Safari/537.36" etag="vys50HA8qmZ1VS7LRMRM" version="20.3.6" type="github">
  <diagram id="uXKbFHsNIVpm_EKD_d8a" name="Page-1">
    <mxGraphModel dx="1038" dy="572" grid="1" gridSize="10" guides="1" tooltips="1" connect="1" arrows="1" fold="1" page="1" pageScale="1" pageWidth="850" pageHeight="1100" math="0" shadow="0">
      <root>
        <mxCell id="0" />
        <mxCell id="1" parent="0" />
        <mxCell id="pXoTBbsiHIWNjvpQK_t--1" value="1" style="rounded=0;whiteSpace=wrap;html=1;" vertex="1" parent="1">
          <mxGeometry x="420" y="620" width="40" height="20" as="geometry" />
        </mxCell>
        <mxCell id="pXoTBbsiHIWNjvpQK_t--23" value="1" style="edgeStyle=orthogonalEdgeStyle;rounded=0;orthogonalLoop=1;jettySize=auto;html=1;entryX=0.5;entryY=1;entryDx=0;entryDy=0;" edge="1" parent="1" source="pXoTBbsiHIWNjvpQK_t--2" target="pXoTBbsiHIWNjvpQK_t--1">
          <mxGeometry relative="1" as="geometry">
            <Array as="points">
              <mxPoint x="250" y="660" />
              <mxPoint x="440" y="660" />
            </Array>
          </mxGeometry>
        </mxCell>
        <mxCell id="pXoTBbsiHIWNjvpQK_t--2" value="0.44" style="rounded=0;whiteSpace=wrap;html=1;" vertex="1" parent="1">
          <mxGeometry x="230" y="680" width="40" height="20" as="geometry" />
        </mxCell>
        <mxCell id="pXoTBbsiHIWNjvpQK_t--20" value="11" style="edgeStyle=orthogonalEdgeStyle;rounded=0;orthogonalLoop=1;jettySize=auto;html=1;entryX=0.5;entryY=1;entryDx=0;entryDy=0;" edge="1" parent="1" source="pXoTBbsiHIWNjvpQK_t--3" target="pXoTBbsiHIWNjvpQK_t--2">
          <mxGeometry relative="1" as="geometry">
            <Array as="points">
              <mxPoint x="180" y="720" />
              <mxPoint x="250" y="720" />
            </Array>
          </mxGeometry>
        </mxCell>
        <mxCell id="pXoTBbsiHIWNjvpQK_t--3" value="0.22" style="rounded=0;whiteSpace=wrap;html=1;" vertex="1" parent="1">
          <mxGeometry x="160" y="750" width="40" height="20" as="geometry" />
        </mxCell>
        <mxCell id="pXoTBbsiHIWNjvpQK_t--22" value="10" style="edgeStyle=orthogonalEdgeStyle;rounded=0;orthogonalLoop=1;jettySize=auto;html=1;" edge="1" parent="1" source="pXoTBbsiHIWNjvpQK_t--4">
          <mxGeometry relative="1" as="geometry">
            <mxPoint x="250" y="700" as="targetPoint" />
            <Array as="points">
              <mxPoint x="320" y="720" />
              <mxPoint x="250" y="720" />
            </Array>
          </mxGeometry>
        </mxCell>
        <mxCell id="pXoTBbsiHIWNjvpQK_t--4" value="0.24" style="rounded=0;whiteSpace=wrap;html=1;" vertex="1" parent="1">
          <mxGeometry x="300" y="750" width="40" height="20" as="geometry" />
        </mxCell>
        <mxCell id="pXoTBbsiHIWNjvpQK_t--18" value="101" style="edgeStyle=orthogonalEdgeStyle;rounded=0;orthogonalLoop=1;jettySize=auto;html=1;entryX=0.5;entryY=1;entryDx=0;entryDy=0;" edge="1" parent="1" source="pXoTBbsiHIWNjvpQK_t--5" target="pXoTBbsiHIWNjvpQK_t--4">
          <mxGeometry relative="1" as="geometry">
            <Array as="points">
              <mxPoint x="260" y="790" />
              <mxPoint x="320" y="790" />
            </Array>
          </mxGeometry>
        </mxCell>
        <mxCell id="pXoTBbsiHIWNjvpQK_t--5" value="0.12" style="rounded=0;whiteSpace=wrap;html=1;" vertex="1" parent="1">
          <mxGeometry x="240" y="810" width="40" height="20" as="geometry" />
        </mxCell>
        <mxCell id="pXoTBbsiHIWNjvpQK_t--19" value="100" style="edgeStyle=orthogonalEdgeStyle;rounded=0;orthogonalLoop=1;jettySize=auto;html=1;entryX=0.5;entryY=1;entryDx=0;entryDy=0;" edge="1" parent="1" source="pXoTBbsiHIWNjvpQK_t--6" target="pXoTBbsiHIWNjvpQK_t--4">
          <mxGeometry relative="1" as="geometry">
            <Array as="points">
              <mxPoint x="380" y="790" />
              <mxPoint x="320" y="790" />
            </Array>
          </mxGeometry>
        </mxCell>
        <mxCell id="pXoTBbsiHIWNjvpQK_t--6" value="0.12" style="rounded=0;whiteSpace=wrap;html=1;" vertex="1" parent="1">
          <mxGeometry x="360" y="810" width="40" height="20" as="geometry" />
        </mxCell>
        <mxCell id="pXoTBbsiHIWNjvpQK_t--15" value="1011" style="edgeStyle=orthogonalEdgeStyle;rounded=0;orthogonalLoop=1;jettySize=auto;html=1;entryX=0.5;entryY=1;entryDx=0;entryDy=0;" edge="1" parent="1" source="pXoTBbsiHIWNjvpQK_t--7" target="pXoTBbsiHIWNjvpQK_t--5">
          <mxGeometry relative="1" as="geometry" />
        </mxCell>
        <mxCell id="pXoTBbsiHIWNjvpQK_t--7" value="0.04" style="rounded=0;whiteSpace=wrap;html=1;" vertex="1" parent="1">
          <mxGeometry x="200" y="880" width="40" height="20" as="geometry" />
        </mxCell>
        <mxCell id="pXoTBbsiHIWNjvpQK_t--17" value="1010" style="edgeStyle=orthogonalEdgeStyle;rounded=0;orthogonalLoop=1;jettySize=auto;html=1;entryX=0.5;entryY=1;entryDx=0;entryDy=0;" edge="1" parent="1" source="pXoTBbsiHIWNjvpQK_t--8" target="pXoTBbsiHIWNjvpQK_t--5">
          <mxGeometry relative="1" as="geometry" />
        </mxCell>
        <mxCell id="pXoTBbsiHIWNjvpQK_t--8" value="0.08" style="rounded=0;whiteSpace=wrap;html=1;" vertex="1" parent="1">
          <mxGeometry x="280" y="880" width="40" height="20" as="geometry" />
        </mxCell>
        <mxCell id="pXoTBbsiHIWNjvpQK_t--11" value="4" style="rounded=0;whiteSpace=wrap;html=1;" vertex="1" parent="1">
          <mxGeometry x="160" y="770" width="40" height="20" as="geometry" />
        </mxCell>
        <mxCell id="pXoTBbsiHIWNjvpQK_t--12" value="2" style="rounded=0;whiteSpace=wrap;html=1;" vertex="1" parent="1">
          <mxGeometry x="200" y="900" width="40" height="20" as="geometry" />
        </mxCell>
        <mxCell id="pXoTBbsiHIWNjvpQK_t--13" value="6" style="rounded=0;whiteSpace=wrap;html=1;" vertex="1" parent="1">
          <mxGeometry x="280" y="900" width="40" height="20" as="geometry" />
        </mxCell>
        <mxCell id="pXoTBbsiHIWNjvpQK_t--14" value="3" style="rounded=0;whiteSpace=wrap;html=1;" vertex="1" parent="1">
          <mxGeometry x="360" y="830" width="40" height="20" as="geometry" />
        </mxCell>
        <mxCell id="pXoTBbsiHIWNjvpQK_t--36" value="0" style="edgeStyle=orthogonalEdgeStyle;rounded=0;orthogonalLoop=1;jettySize=auto;html=1;entryX=0.5;entryY=1;entryDx=0;entryDy=0;" edge="1" parent="1" source="pXoTBbsiHIWNjvpQK_t--24" target="pXoTBbsiHIWNjvpQK_t--1">
          <mxGeometry relative="1" as="geometry">
            <Array as="points">
              <mxPoint x="610" y="660" />
              <mxPoint x="440" y="660" />
            </Array>
          </mxGeometry>
        </mxCell>
        <mxCell id="pXoTBbsiHIWNjvpQK_t--24" value="0.56" style="rounded=0;whiteSpace=wrap;html=1;" vertex="1" parent="1">
          <mxGeometry x="590" y="680" width="40" height="20" as="geometry" />
        </mxCell>
        <mxCell id="pXoTBbsiHIWNjvpQK_t--34" value="01" style="edgeStyle=orthogonalEdgeStyle;rounded=0;orthogonalLoop=1;jettySize=auto;html=1;entryX=0.5;entryY=1;entryDx=0;entryDy=0;" edge="1" parent="1" source="pXoTBbsiHIWNjvpQK_t--25" target="pXoTBbsiHIWNjvpQK_t--24">
          <mxGeometry relative="1" as="geometry">
            <Array as="points">
              <mxPoint x="540" y="720" />
              <mxPoint x="610" y="720" />
            </Array>
          </mxGeometry>
        </mxCell>
        <mxCell id="pXoTBbsiHIWNjvpQK_t--25" value="0.24" style="rounded=0;whiteSpace=wrap;html=1;" vertex="1" parent="1">
          <mxGeometry x="520" y="750" width="40" height="20" as="geometry" />
        </mxCell>
        <mxCell id="pXoTBbsiHIWNjvpQK_t--26" value="5" style="rounded=0;whiteSpace=wrap;html=1;" vertex="1" parent="1">
          <mxGeometry x="520" y="770" width="40" height="20" as="geometry" />
        </mxCell>
        <mxCell id="pXoTBbsiHIWNjvpQK_t--35" value="00" style="edgeStyle=orthogonalEdgeStyle;rounded=0;orthogonalLoop=1;jettySize=auto;html=1;exitX=0.5;exitY=0;exitDx=0;exitDy=0;" edge="1" parent="1" source="pXoTBbsiHIWNjvpQK_t--27">
          <mxGeometry relative="1" as="geometry">
            <mxPoint x="610" y="700" as="targetPoint" />
            <Array as="points">
              <mxPoint x="680" y="720" />
              <mxPoint x="610" y="720" />
            </Array>
          </mxGeometry>
        </mxCell>
        <mxCell id="pXoTBbsiHIWNjvpQK_t--27" value="0.32" style="rounded=0;whiteSpace=wrap;html=1;" vertex="1" parent="1">
          <mxGeometry x="660" y="750" width="40" height="20" as="geometry" />
        </mxCell>
        <mxCell id="pXoTBbsiHIWNjvpQK_t--32" value="001" style="edgeStyle=orthogonalEdgeStyle;rounded=0;orthogonalLoop=1;jettySize=auto;html=1;entryX=0.5;entryY=1;entryDx=0;entryDy=0;exitX=0.5;exitY=0;exitDx=0;exitDy=0;" edge="1" parent="1" source="pXoTBbsiHIWNjvpQK_t--28" target="pXoTBbsiHIWNjvpQK_t--27">
          <mxGeometry relative="1" as="geometry">
            <Array as="points">
              <mxPoint x="630" y="790" />
              <mxPoint x="680" y="790" />
            </Array>
          </mxGeometry>
        </mxCell>
        <mxCell id="pXoTBbsiHIWNjvpQK_t--28" value="0.16" style="rounded=0;whiteSpace=wrap;html=1;" vertex="1" parent="1">
          <mxGeometry x="610" y="810" width="40" height="20" as="geometry" />
        </mxCell>
        <mxCell id="pXoTBbsiHIWNjvpQK_t--33" value="000" style="edgeStyle=orthogonalEdgeStyle;rounded=0;orthogonalLoop=1;jettySize=auto;html=1;entryX=0.5;entryY=1;entryDx=0;entryDy=0;" edge="1" parent="1" source="pXoTBbsiHIWNjvpQK_t--29" target="pXoTBbsiHIWNjvpQK_t--27">
          <mxGeometry relative="1" as="geometry">
            <Array as="points">
              <mxPoint x="730" y="790" />
              <mxPoint x="680" y="790" />
            </Array>
          </mxGeometry>
        </mxCell>
        <mxCell id="pXoTBbsiHIWNjvpQK_t--29" value="0.16" style="rounded=0;whiteSpace=wrap;html=1;" vertex="1" parent="1">
          <mxGeometry x="710" y="810" width="40" height="20" as="geometry" />
        </mxCell>
        <mxCell id="pXoTBbsiHIWNjvpQK_t--30" value="1" style="rounded=0;whiteSpace=wrap;html=1;" vertex="1" parent="1">
          <mxGeometry x="610" y="830" width="40" height="20" as="geometry" />
        </mxCell>
        <mxCell id="pXoTBbsiHIWNjvpQK_t--31" value="7" style="rounded=0;whiteSpace=wrap;html=1;" vertex="1" parent="1">
          <mxGeometry x="710" y="830" width="40" height="20" as="geometry" />
        </mxCell>
      </root>
    </mxGraphModel>
  </diagram>
</mxfile>
